G04*
G04 #@! TF.GenerationSoftware,Altium Limited,Altium Designer,25.3.3 (18)*
G04*
G04 Layer_Physical_Order=1*
G04 Layer_Color=255*
%FSLAX44Y44*%
%MOMM*%
G71*
G04*
G04 #@! TF.SameCoordinates,C271A50E-F219-4090-8804-677EA219C895*
G04*
G04*
G04 #@! TF.FilePolarity,Positive*
G04*
G01*
G75*
%ADD10R,1.0160X1.2700*%
%ADD11R,1.5240X0.6604*%
%ADD12R,0.7620X0.8128*%
%ADD13C,2.0000*%
%ADD14R,1.2700X1.0160*%
%ADD15C,0.7500*%
%ADD16C,1.0000*%
%ADD17C,0.5000*%
%ADD18C,0.6500*%
%ADD19C,1.2500*%
%ADD20C,1.5000*%
%ADD21C,0.2000*%
%ADD22C,2.2860*%
%ADD23O,2.0320X1.5240*%
G04:AMPARAMS|DCode=24|XSize=1.6mm|YSize=1.6mm|CornerRadius=0.4mm|HoleSize=0mm|Usage=FLASHONLY|Rotation=270.000|XOffset=0mm|YOffset=0mm|HoleType=Round|Shape=RoundedRectangle|*
%AMROUNDEDRECTD24*
21,1,1.6000,0.8000,0,0,270.0*
21,1,0.8000,1.6000,0,0,270.0*
1,1,0.8000,-0.4000,-0.4000*
1,1,0.8000,-0.4000,0.4000*
1,1,0.8000,0.4000,0.4000*
1,1,0.8000,0.4000,-0.4000*
%
%ADD24ROUNDEDRECTD24*%
%ADD25C,1.6000*%
%ADD26C,1.3208*%
G04:AMPARAMS|DCode=27|XSize=1.3208mm|YSize=1.3208mm|CornerRadius=0.3302mm|HoleSize=0mm|Usage=FLASHONLY|Rotation=0.000|XOffset=0mm|YOffset=0mm|HoleType=Round|Shape=RoundedRectangle|*
%AMROUNDEDRECTD27*
21,1,1.3208,0.6604,0,0,0.0*
21,1,0.6604,1.3208,0,0,0.0*
1,1,0.6604,0.3302,-0.3302*
1,1,0.6604,-0.3302,-0.3302*
1,1,0.6604,-0.3302,0.3302*
1,1,0.6604,0.3302,0.3302*
%
%ADD27ROUNDEDRECTD27*%
%ADD28R,1.5240X1.5240*%
%ADD29C,1.5240*%
%ADD30C,1.7000*%
G04:AMPARAMS|DCode=31|XSize=1.7mm|YSize=1.7mm|CornerRadius=0.425mm|HoleSize=0mm|Usage=FLASHONLY|Rotation=180.000|XOffset=0mm|YOffset=0mm|HoleType=Round|Shape=RoundedRectangle|*
%AMROUNDEDRECTD31*
21,1,1.7000,0.8500,0,0,180.0*
21,1,0.8500,1.7000,0,0,180.0*
1,1,0.8500,-0.4250,0.4250*
1,1,0.8500,0.4250,0.4250*
1,1,0.8500,0.4250,-0.4250*
1,1,0.8500,-0.4250,-0.4250*
%
%ADD31ROUNDEDRECTD31*%
G04:AMPARAMS|DCode=32|XSize=1.7mm|YSize=1.7mm|CornerRadius=0.425mm|HoleSize=0mm|Usage=FLASHONLY|Rotation=90.000|XOffset=0mm|YOffset=0mm|HoleType=Round|Shape=RoundedRectangle|*
%AMROUNDEDRECTD32*
21,1,1.7000,0.8500,0,0,90.0*
21,1,0.8500,1.7000,0,0,90.0*
1,1,0.8500,0.4250,0.4250*
1,1,0.8500,0.4250,-0.4250*
1,1,0.8500,-0.4250,-0.4250*
1,1,0.8500,-0.4250,0.4250*
%
%ADD32ROUNDEDRECTD32*%
%ADD33C,1.2700*%
%ADD34C,0.7500*%
%ADD35C,1.0000*%
G36*
X477520Y226060D02*
X424180D01*
Y208280D01*
X403860D01*
Y261620D01*
X457200D01*
Y287020D01*
X477520D01*
Y226060D01*
D02*
G37*
G36*
X393700Y196850D02*
X419100D01*
Y118110D01*
X343952D01*
X342900Y120650D01*
X378460Y156210D01*
Y165100D01*
X370840D01*
Y228600D01*
X378460D01*
Y259080D01*
X393700D01*
Y196850D01*
D02*
G37*
G36*
X533400Y226060D02*
X490220D01*
Y274320D01*
X505220Y289320D01*
Y322580D01*
X533400D01*
Y226060D01*
D02*
G37*
G36*
X680720Y228600D02*
X619760D01*
Y259080D01*
X680720D01*
Y228600D01*
D02*
G37*
G36*
X762000Y91440D02*
X680720D01*
Y101600D01*
X762000D01*
Y91440D01*
D02*
G37*
G36*
X924560Y160020D02*
X901700D01*
Y190500D01*
X924560D01*
Y160020D01*
D02*
G37*
D10*
X946150Y185420D02*
D03*
X923290D02*
D03*
X303530Y223520D02*
D03*
X326390D02*
D03*
X923290Y165100D02*
D03*
X946150D02*
D03*
X519430Y58420D02*
D03*
X496570D02*
D03*
X278130D02*
D03*
X255270D02*
D03*
X481330D02*
D03*
X458470D02*
D03*
X240030D02*
D03*
X217170D02*
D03*
X699770Y284480D02*
D03*
X722630D02*
D03*
X760730Y63500D02*
D03*
X737870D02*
D03*
X740410Y284480D02*
D03*
X763270D02*
D03*
X722630Y63500D02*
D03*
X699770D02*
D03*
D11*
X467360Y207010D02*
D03*
Y194310D02*
D03*
X525780Y168910D02*
D03*
Y181610D02*
D03*
X467360Y168910D02*
D03*
Y156210D02*
D03*
Y181610D02*
D03*
Y143510D02*
D03*
X525780Y207010D02*
D03*
Y194310D02*
D03*
Y118110D02*
D03*
Y130810D02*
D03*
Y156210D02*
D03*
Y143510D02*
D03*
X467360Y118110D02*
D03*
Y130810D02*
D03*
X168910Y148590D02*
D03*
Y135890D02*
D03*
X227330Y161290D02*
D03*
Y173990D02*
D03*
Y148590D02*
D03*
Y135890D02*
D03*
Y212090D02*
D03*
Y224790D02*
D03*
X168910Y161290D02*
D03*
Y199390D02*
D03*
Y173990D02*
D03*
Y186690D02*
D03*
X227330Y199390D02*
D03*
Y186690D02*
D03*
X168910Y212090D02*
D03*
Y224790D02*
D03*
X811530Y194310D02*
D03*
Y207010D02*
D03*
X753110Y181610D02*
D03*
Y168910D02*
D03*
Y194310D02*
D03*
Y207010D02*
D03*
Y130810D02*
D03*
Y118110D02*
D03*
X811530Y181610D02*
D03*
Y143510D02*
D03*
Y168910D02*
D03*
Y156210D02*
D03*
X753110Y143510D02*
D03*
Y156210D02*
D03*
X811530Y130810D02*
D03*
Y118110D02*
D03*
X651510Y207010D02*
D03*
Y194310D02*
D03*
X709930Y168910D02*
D03*
Y181610D02*
D03*
X651510Y168910D02*
D03*
Y156210D02*
D03*
Y181610D02*
D03*
Y143510D02*
D03*
X709930Y207010D02*
D03*
Y194310D02*
D03*
Y118110D02*
D03*
Y130810D02*
D03*
Y156210D02*
D03*
Y143510D02*
D03*
X651510Y118110D02*
D03*
Y130810D02*
D03*
D12*
X200660Y119380D02*
D03*
X185420D02*
D03*
X774700Y101600D02*
D03*
X789940D02*
D03*
X499110D02*
D03*
X483870D02*
D03*
X355600Y213360D02*
D03*
X370840D02*
D03*
X406400D02*
D03*
X391160D02*
D03*
X668020Y101600D02*
D03*
X683260D02*
D03*
D13*
X505220Y322580D02*
D03*
X475220D02*
D03*
D14*
X584200Y280670D02*
D03*
Y303530D02*
D03*
X886460Y54610D02*
D03*
Y77470D02*
D03*
X866140Y54610D02*
D03*
Y77470D02*
D03*
X845820Y54610D02*
D03*
Y77470D02*
D03*
X825500Y54610D02*
D03*
Y77470D02*
D03*
X886460Y295910D02*
D03*
Y273050D02*
D03*
X866140Y295910D02*
D03*
Y273050D02*
D03*
X845820Y295910D02*
D03*
Y273050D02*
D03*
X825500Y295910D02*
D03*
Y273050D02*
D03*
X151130Y303530D02*
D03*
Y280670D02*
D03*
X175260Y303530D02*
D03*
Y280670D02*
D03*
X149860Y40640D02*
D03*
Y63500D02*
D03*
X99060Y40640D02*
D03*
Y63500D02*
D03*
X73660Y40640D02*
D03*
Y63500D02*
D03*
X99060Y303530D02*
D03*
Y280670D02*
D03*
X175260Y40640D02*
D03*
Y63500D02*
D03*
X73660Y303530D02*
D03*
Y280670D02*
D03*
X393700Y303530D02*
D03*
Y280670D02*
D03*
X419100Y303530D02*
D03*
Y280670D02*
D03*
X393700Y40640D02*
D03*
Y63500D02*
D03*
X342900Y40640D02*
D03*
Y63500D02*
D03*
X317500Y40640D02*
D03*
Y63500D02*
D03*
X342900Y303530D02*
D03*
Y280670D02*
D03*
X317500Y303530D02*
D03*
Y280670D02*
D03*
X419100Y40640D02*
D03*
Y63500D02*
D03*
X637540Y303530D02*
D03*
Y280670D02*
D03*
X662940Y303530D02*
D03*
Y280670D02*
D03*
X636270Y40640D02*
D03*
Y63500D02*
D03*
X586740Y40640D02*
D03*
Y63500D02*
D03*
X560070Y40640D02*
D03*
Y63500D02*
D03*
X661670Y40640D02*
D03*
Y63500D02*
D03*
X558800Y303530D02*
D03*
Y280670D02*
D03*
D15*
X260375Y251225D02*
X260400Y251200D01*
X260375Y251225D02*
Y279375D01*
X260350Y279400D02*
X260375Y279375D01*
X234975Y251225D02*
X235000Y251200D01*
X234975Y251225D02*
Y279375D01*
X234950Y279400D02*
X234975Y279375D01*
X670560Y288290D02*
X681990D01*
X662940Y280670D02*
X670560Y288290D01*
X723900Y236220D02*
Y255270D01*
X749300Y236220D02*
Y255270D01*
X468767Y101600D02*
X480197Y90170D01*
X602615Y257175D02*
X603250Y257810D01*
X602615Y236855D02*
Y257175D01*
X601980Y236220D02*
X602615Y236855D01*
X577215Y257175D02*
X577850Y257810D01*
X577215Y236855D02*
Y257175D01*
X576580Y236220D02*
X577215Y236855D01*
X542290Y55880D02*
X551180D01*
X558800Y63500D01*
X560070D01*
X595630Y55880D02*
X605790D01*
X588010Y63500D02*
X595630Y55880D01*
X586740Y63500D02*
X588010D01*
X617220Y55880D02*
X627380D01*
X635000Y63500D01*
X636270D01*
X670560Y55880D02*
X680720D01*
X662940Y63500D02*
X670560Y55880D01*
X661670Y63500D02*
X662940D01*
X558800Y265430D02*
Y280670D01*
X618490Y288290D02*
X629920D01*
X637540Y280670D01*
X591820Y288290D02*
X603250D01*
X584200Y280670D02*
X591820Y288290D01*
X82575Y228625D02*
Y251175D01*
X82550Y228600D02*
X82575Y228625D01*
Y251175D02*
X82600Y251200D01*
X302260Y280670D02*
X317500D01*
X427990Y288290D02*
X436880D01*
X420370Y280670D02*
X427990Y288290D01*
X419100Y280670D02*
X420370D01*
X375920Y288290D02*
X384810D01*
X392430Y280670D01*
X393700D01*
X351790Y288290D02*
X360680D01*
X344170Y280670D02*
X351790Y288290D01*
X342900Y280670D02*
X344170D01*
X600710Y90170D02*
X628650Y118110D01*
X480197Y90170D02*
X600710D01*
X467360Y101600D02*
X468767D01*
X217090Y80010D02*
X458470D01*
X692150D01*
X458470Y58420D02*
Y80010D01*
X499110Y101600D02*
X529590D01*
X55880Y55880D02*
X64770D01*
X72390Y63500D01*
X73660D01*
X184150Y55880D02*
X193040D01*
X176530Y63500D02*
X184150Y55880D01*
X175260Y63500D02*
X176530D01*
X692150Y80010D02*
X699770Y72390D01*
Y63500D02*
Y72390D01*
X302260Y55880D02*
X308610D01*
X316230Y63500D01*
X317500D01*
X427990Y55880D02*
X435610D01*
X420370Y63500D02*
X427990Y55880D01*
X419100Y63500D02*
X420370D01*
X375920Y55880D02*
X384810D01*
X392430Y63500D01*
X393700D01*
X351790Y55880D02*
X360680D01*
X344170Y63500D02*
X351790Y55880D01*
X342900Y63500D02*
X344170D01*
X132080Y55880D02*
X140970D01*
X148590Y63500D01*
X149860D01*
X107950Y55880D02*
X116840D01*
X100330Y63500D02*
X107950Y55880D01*
X99060Y63500D02*
X100330D01*
X107950Y288290D02*
X116840D01*
X100330Y280670D02*
X107950Y288290D01*
X99060Y280670D02*
X100330D01*
X133350Y288290D02*
X142240D01*
X149860Y280670D01*
X151130D01*
X133620Y86090D02*
Y98580D01*
X133400Y98800D02*
X133620Y98580D01*
X139700Y80010D02*
X217090D01*
X133620Y86090D02*
X139700Y80010D01*
X217090Y58500D02*
X217170Y58420D01*
X217090Y58500D02*
Y80010D01*
X114300Y119957D02*
Y120650D01*
X58420Y280670D02*
X73660D01*
X175260D02*
X190500D01*
X760730Y63500D02*
Y100330D01*
X373380Y213360D02*
X391160D01*
D16*
X228575Y120675D02*
X234950Y114300D01*
Y98850D02*
Y114300D01*
Y98850D02*
X235000Y98800D01*
X756920Y330200D02*
X772160Y345440D01*
X848360D01*
X756920Y314960D02*
Y330200D01*
X944960Y82500D02*
X947500D01*
X889000Y138460D02*
X944960Y82500D01*
X889000Y138460D02*
Y211540D01*
X944960Y267500D01*
X947500D01*
X886460Y77470D02*
X886460Y77470D01*
Y91440D01*
X661860Y22790D02*
X662050Y22600D01*
X661860Y22790D02*
Y40560D01*
X661780Y40640D02*
X661860Y40560D01*
X661670Y40640D02*
X661780D01*
X636460Y22790D02*
X636650Y22600D01*
X636460Y22790D02*
Y40560D01*
X636380Y40640D02*
X636460Y40560D01*
X636270Y40640D02*
X636380D01*
X585850Y22600D02*
X586295Y23045D01*
Y40560D01*
X586375Y40640D01*
X586740D01*
X560260Y22790D02*
X560450Y22600D01*
X560260Y22790D02*
Y40560D01*
X560180Y40640D02*
X560260Y40560D01*
X560070Y40640D02*
X560180D01*
X699850Y271700D02*
X704850Y266700D01*
X699850Y271700D02*
Y284400D01*
X699770Y284480D02*
X699850Y284400D01*
X755650Y6350D02*
Y34750D01*
X755400Y35000D02*
X755650Y34750D01*
X515620Y6350D02*
Y33020D01*
X274320Y6350D02*
Y33020D01*
X419325Y22825D02*
X419550Y22600D01*
X419325Y22825D02*
Y40560D01*
X419245Y40640D02*
X419325Y40560D01*
X419100Y40640D02*
X419245D01*
X393925Y22825D02*
X394150Y22600D01*
X393925Y22825D02*
Y40560D01*
X393845Y40640D02*
X393925Y40560D01*
X393700Y40640D02*
X393845D01*
X343125Y22825D02*
X343350Y22600D01*
X343125Y22825D02*
Y40560D01*
X343045Y40640D02*
X343125Y40560D01*
X342900Y40640D02*
X343045D01*
X317725Y22825D02*
X317950Y22600D01*
X317725Y22825D02*
Y40560D01*
X317645Y40640D02*
X317725Y40560D01*
X317500Y40640D02*
X317645D01*
X175530Y22600D02*
Y40560D01*
X175260Y40640D02*
X175450D01*
X175530Y40560D01*
X149860Y40640D02*
X150050D01*
X150130Y40560D01*
Y22870D02*
Y40560D01*
Y22870D02*
X150400Y22600D01*
X73660Y40640D02*
X73850D01*
X73930Y40560D01*
Y22870D02*
Y40560D01*
Y22870D02*
X74200Y22600D01*
X99060Y40640D02*
X99250D01*
X99330Y40560D01*
Y22870D02*
Y40560D01*
Y22870D02*
X99600Y22600D01*
X114300Y78740D02*
Y79471D01*
X107950Y85821D02*
X114300Y79471D01*
X107950Y85821D02*
Y98750D01*
X108000Y98800D01*
X139700Y119919D02*
Y120650D01*
X133350Y113569D02*
X139700Y119919D01*
X133350Y98850D02*
Y113569D01*
Y98850D02*
X133400Y98800D01*
X114300Y119919D02*
Y120650D01*
X107950Y113569D02*
X114300Y119919D01*
X107950Y98850D02*
Y113569D01*
Y98850D02*
X108000Y98800D01*
X150400Y327400D02*
X151130Y326670D01*
Y303530D02*
Y326670D01*
X825500Y77470D02*
Y91440D01*
X825500Y77470D02*
X825500Y77470D01*
X845820D02*
Y91440D01*
X845820Y77470D02*
X845820Y77470D01*
X866140D02*
Y91440D01*
X866140Y77470D02*
X866140Y77470D01*
X825500Y259080D02*
Y273050D01*
X825500Y273050D02*
X825500Y273050D01*
X845820Y259080D02*
Y273050D01*
X845820Y273050D02*
X845820Y273050D01*
X866140Y259080D02*
Y273050D01*
X866140Y273050D02*
X866140Y273050D01*
X886460Y259080D02*
Y273050D01*
X886460Y273050D02*
X886460Y273050D01*
X260400Y98800D02*
Y123190D01*
X285750Y98850D02*
Y123190D01*
Y98850D02*
X285800Y98800D01*
X706120Y313542D02*
Y314960D01*
X699770Y307192D02*
X706120Y313542D01*
X699770Y284480D02*
Y307192D01*
X755400Y35000D02*
Y36418D01*
X760730Y41748D01*
Y63500D01*
X946150Y185420D02*
X962660D01*
X946150Y165100D02*
X962660D01*
X946150Y163830D02*
X947500Y162480D01*
Y127500D02*
Y162480D01*
X946150Y186690D02*
X947500Y188040D01*
Y222500D01*
X274320Y33020D02*
Y34438D01*
X278130Y38248D01*
Y58420D01*
X292100Y223520D02*
X303530D01*
X285800Y229820D02*
X292100Y223520D01*
X285800Y229820D02*
Y251200D01*
Y336600D01*
X294640Y345440D01*
X462280D01*
X475220Y332500D01*
Y322580D02*
Y332500D01*
X492600Y233680D02*
X495300Y236380D01*
Y279400D01*
X505220Y289320D01*
Y322580D01*
X515400Y35000D02*
X519430Y39030D01*
Y58420D01*
X848360Y345440D02*
X855000Y338800D01*
Y327400D02*
Y338800D01*
X125000Y12160D02*
X132080Y5080D01*
X125000Y12160D02*
Y22600D01*
X132080Y5080D02*
X210820D01*
X223520Y17780D01*
Y33020D01*
X368750Y12250D02*
Y22600D01*
Y12250D02*
X375920Y5080D01*
X451680D01*
X464600Y18000D02*
Y35000D01*
X451680Y5080D02*
X464600Y18000D01*
X611250Y11050D02*
Y22600D01*
Y11050D02*
X617220Y5080D01*
X690880D01*
X704600Y18800D02*
Y35000D01*
X690880Y5080D02*
X704600Y18800D01*
X731520Y284869D02*
Y314960D01*
X722630Y284480D02*
Y284789D01*
X722710Y284869D02*
X740330D01*
X740410Y284480D02*
Y284789D01*
X722630D02*
X722710Y284869D01*
X740330D02*
X740410Y284789D01*
X804200Y326100D02*
X825500Y304800D01*
Y295910D02*
Y304800D01*
X905800Y324140D02*
Y327400D01*
X886460Y304800D02*
X905800Y324140D01*
X886460Y295910D02*
Y304800D01*
X880400Y321600D02*
Y327400D01*
X866140Y307340D02*
X880400Y321600D01*
X866140Y295910D02*
Y307340D01*
X829600Y323560D02*
Y327400D01*
Y323560D02*
X845820Y307340D01*
Y295910D02*
Y307340D01*
X804200Y22600D02*
Y24420D01*
X825500Y45720D01*
Y54610D01*
X829600Y22600D02*
Y26960D01*
X845820Y43180D01*
Y54610D01*
X886460Y45720D02*
Y54610D01*
Y45720D02*
X905800Y26380D01*
Y22600D02*
Y26380D01*
X866140Y43180D02*
Y54610D01*
Y43180D02*
X880400Y28920D01*
Y22600D02*
Y28920D01*
X866140Y295910D02*
X866140Y295910D01*
X730000Y35000D02*
Y62480D01*
X722630Y63500D02*
X737870D01*
X558800Y303530D02*
Y325750D01*
X584200Y303530D02*
Y325750D01*
X637540Y303530D02*
Y326510D01*
X662940Y303530D02*
Y326510D01*
X490000Y35000D02*
Y58200D01*
X481330Y58420D02*
X496570D01*
X248920D02*
X255270D01*
X248920Y33020D02*
Y58420D01*
X240030D02*
X248920D01*
X419100Y303530D02*
Y326950D01*
X393700Y303530D02*
Y326950D01*
X342900Y303530D02*
Y326950D01*
X317500Y303530D02*
Y326950D01*
X175260Y303530D02*
Y326860D01*
X99600Y304070D02*
Y327400D01*
X74200Y304070D02*
Y327400D01*
D17*
X544830Y217170D02*
X679450D01*
X698500Y236220D02*
X717550Y217170D01*
X679450D02*
X698500Y236220D01*
X525780D02*
X544830Y217170D01*
X884470Y207010D02*
X889000Y211540D01*
X811530Y207010D02*
X884470D01*
X341630Y118110D02*
X467360D01*
X499110Y130810D02*
Y196850D01*
X509270Y207010D01*
X499110Y130810D02*
X525780D01*
X499110Y101600D02*
Y130810D01*
X789940Y207010D02*
Y208280D01*
Y101600D02*
Y207010D01*
X781050Y217170D02*
X789940Y208280D01*
X717550Y217170D02*
X781050D01*
X444500Y130810D02*
X467360D01*
X435610Y143510D02*
X467360D01*
X444500Y156210D02*
X467360D01*
X435610Y168910D02*
X467360D01*
X444500Y181610D02*
X467360D01*
X435610Y194310D02*
X467360D01*
X444500Y207010D02*
X467360D01*
X525780Y118110D02*
X554990D01*
X525780Y143510D02*
X554990D01*
X525780Y156210D02*
X546100D01*
X525780Y168910D02*
X554990D01*
X525780Y181610D02*
X546100D01*
X525780Y194310D02*
X554990D01*
X811530Y130810D02*
X836930D01*
X626110Y207010D02*
X651510D01*
X635000Y194310D02*
X651510D01*
X626110Y181610D02*
X651510D01*
X635000Y168910D02*
X651510D01*
X626110Y156210D02*
X651510D01*
X635000Y143510D02*
X651510D01*
X614680Y130810D02*
X651510D01*
X340995Y118745D02*
X341630Y118110D01*
X628650D02*
X651510D01*
X473710Y101600D02*
X483870D01*
X200660Y148590D02*
Y213360D01*
Y119380D02*
Y148590D01*
X683260Y130810D02*
Y195580D01*
Y101600D02*
Y130810D01*
X509270Y207010D02*
X525780D01*
X227330Y161290D02*
X252730D01*
X227330Y135890D02*
X243840D01*
X227330Y173990D02*
X243840D01*
X227330Y186690D02*
X252730D01*
X227330Y199390D02*
X243840D01*
X227330Y212090D02*
X252730D01*
X133400Y251200D02*
Y252680D01*
X116840Y269240D02*
X133400Y252680D01*
X116840Y269240D02*
Y270510D01*
X133350D02*
X134823Y269037D01*
X140963D02*
X158800Y251200D01*
X134823Y269037D02*
X140963D01*
X152400Y224790D02*
X168910D01*
X143510Y212090D02*
X168910D01*
X152400Y199390D02*
X168910D01*
X143510Y186690D02*
X168910D01*
X152400Y173990D02*
X168910D01*
X143510Y161290D02*
X168910D01*
X152400Y148590D02*
X168910D01*
X789940Y82550D02*
Y101600D01*
X811530Y181610D02*
X836930D01*
X811530Y156210D02*
X836930D01*
X811530Y194310D02*
X828040D01*
X811530Y168910D02*
X828040D01*
X811530Y143510D02*
X828040D01*
X811530Y118110D02*
X828040D01*
X752829Y156491D02*
X753110Y156210D01*
X737990Y156491D02*
X752829D01*
X725571Y168910D02*
X737990Y156491D01*
X709930Y168910D02*
X725571D01*
X739140D02*
X753110D01*
X709930Y156210D02*
X723900D01*
X739140Y181610D02*
X753110D01*
X737870Y143510D02*
X753110D01*
X725170Y130810D02*
X737870Y143510D01*
X725170Y121920D02*
Y130810D01*
X709930Y143510D02*
X723900D01*
X739140Y130810D02*
X753110D01*
X709930Y181610D02*
X723900D01*
X709930Y194310D02*
X723900D01*
X721360Y118110D02*
X725170Y121920D01*
X709930Y118110D02*
X721360D01*
X709930D02*
X710732Y118912D01*
X336600Y152450D02*
Y170180D01*
X227330Y148590D02*
X332740D01*
X200660D02*
X227330D01*
X332740D02*
X336600Y152450D01*
Y213360D02*
X355600D01*
X752623Y194797D02*
X753110Y194310D01*
X739140Y197726D02*
X742069Y194797D01*
X736211Y207010D02*
X739140Y204081D01*
Y197726D02*
Y204081D01*
X709930Y207010D02*
X736211D01*
X742069Y194797D02*
X752623D01*
X212090Y224790D02*
X227330D01*
X200660Y213360D02*
X212090Y224790D01*
X172720Y119380D02*
X185420D01*
X168910Y123190D02*
X172720Y119380D01*
X168910Y123190D02*
Y135890D01*
X694690Y207010D02*
X709930D01*
X789940D02*
X811530D01*
X760730Y100330D02*
X762000Y101600D01*
X774700D01*
X753110Y102870D02*
X754380Y101600D01*
X753110Y102870D02*
Y118110D01*
X754380Y101600D02*
X762000D01*
X683260D02*
X754380D01*
X683260Y130810D02*
X709930D01*
X683260Y195580D02*
X694690Y207010D01*
X655320Y101600D02*
X668020D01*
X651510Y105410D02*
X655320Y101600D01*
X651510Y105410D02*
Y118110D01*
D18*
X467360Y101600D02*
Y118110D01*
D19*
X340995Y118745D02*
X377190Y154940D01*
Y172720D01*
X336550Y114300D02*
X340995Y118745D01*
X336550Y98850D02*
Y114300D01*
Y98850D02*
X336600Y98800D01*
D20*
Y213360D02*
Y251200D01*
Y170180D02*
Y213360D01*
X387400Y250659D02*
Y251200D01*
D21*
X335280Y170180D02*
D03*
X908050Y173453D02*
D03*
D22*
X922500Y70000D02*
D03*
Y140000D02*
D03*
Y280000D02*
D03*
Y210000D02*
D03*
D23*
X947500Y82500D02*
D03*
Y127500D02*
D03*
Y267500D02*
D03*
Y222500D02*
D03*
D24*
X673100Y236220D02*
D03*
X627380D02*
D03*
D25*
X698500D02*
D03*
X723900D02*
D03*
X749300D02*
D03*
X774700D02*
D03*
X800100D02*
D03*
X525780D02*
D03*
X551180D02*
D03*
X576580D02*
D03*
X601980D02*
D03*
D26*
X492600Y233680D02*
D03*
D27*
X472600D02*
D03*
D28*
X469900Y279400D02*
D03*
D29*
X495300D02*
D03*
X248920Y33020D02*
D03*
X274320D02*
D03*
X223520D02*
D03*
X490220D02*
D03*
X515620D02*
D03*
X464820D02*
D03*
X730000Y35000D02*
D03*
X755400D02*
D03*
X704600D02*
D03*
X731520Y314960D02*
D03*
X706120D02*
D03*
X756920D02*
D03*
D30*
X99600Y22600D02*
D03*
X74200D02*
D03*
X99600Y327400D02*
D03*
X150400D02*
D03*
X175800D02*
D03*
X150400Y22600D02*
D03*
X175800D02*
D03*
X74200Y327400D02*
D03*
X394150D02*
D03*
X419550D02*
D03*
X394150Y22600D02*
D03*
X343350D02*
D03*
X317950D02*
D03*
X343350Y327400D02*
D03*
X317950D02*
D03*
X419550Y22600D02*
D03*
X387400Y98800D02*
D03*
X362000D02*
D03*
X336600D02*
D03*
X311200D02*
D03*
X285800D02*
D03*
X260400D02*
D03*
X235000D02*
D03*
X209600D02*
D03*
X184200D02*
D03*
X158800D02*
D03*
X133400D02*
D03*
X108000D02*
D03*
X82600D02*
D03*
X57200D02*
D03*
Y251200D02*
D03*
X82600D02*
D03*
X108000D02*
D03*
X133400D02*
D03*
X158800D02*
D03*
X184200D02*
D03*
X209600D02*
D03*
X235000D02*
D03*
X260400D02*
D03*
X285800D02*
D03*
X311200D02*
D03*
X336600D02*
D03*
X362000D02*
D03*
X387400D02*
D03*
X412800D02*
D03*
X560450Y327400D02*
D03*
X662050Y22600D02*
D03*
X636650D02*
D03*
X662050Y327400D02*
D03*
X636650D02*
D03*
X585850D02*
D03*
X560450Y22600D02*
D03*
X585850D02*
D03*
X905800D02*
D03*
X804200Y327400D02*
D03*
X829600D02*
D03*
X804200Y22600D02*
D03*
X829600D02*
D03*
X880400D02*
D03*
X905800Y327400D02*
D03*
X880400D02*
D03*
D31*
X125000Y22600D02*
D03*
Y327400D02*
D03*
X368750D02*
D03*
Y22600D02*
D03*
X611250Y327400D02*
D03*
Y22600D02*
D03*
X855000D02*
D03*
Y327400D02*
D03*
D32*
X412800Y98800D02*
D03*
D33*
X234950Y279400D02*
D03*
X260350D02*
D03*
X650240Y241300D02*
D03*
X749300Y255270D02*
D03*
X723900D02*
D03*
X603250Y257810D02*
D03*
X577850D02*
D03*
X82550Y228600D02*
D03*
X628650Y118110D02*
D03*
X467360Y101600D02*
D03*
X704850Y266700D02*
D03*
X114300Y78740D02*
D03*
X139700Y120650D02*
D03*
X114300D02*
D03*
X789940Y82550D02*
D03*
X962660Y185420D02*
D03*
Y165100D02*
D03*
D34*
X444500Y207010D02*
D03*
X435610Y194310D02*
D03*
X444500Y181610D02*
D03*
X435610Y168910D02*
D03*
X444500Y156210D02*
D03*
X435610Y143510D02*
D03*
X444500Y130810D02*
D03*
X554990Y194310D02*
D03*
X546100Y181610D02*
D03*
X554990Y168910D02*
D03*
X546100Y156210D02*
D03*
X554990Y143510D02*
D03*
Y118110D02*
D03*
X836930Y130810D02*
D03*
X626110Y207010D02*
D03*
X635000Y194310D02*
D03*
X626110Y181610D02*
D03*
X635000Y168910D02*
D03*
X626110Y156210D02*
D03*
X635000Y143510D02*
D03*
X614680Y130810D02*
D03*
X529590Y101600D02*
D03*
X252730Y161290D02*
D03*
X243840Y135890D02*
D03*
Y173990D02*
D03*
X252730Y186690D02*
D03*
X243840Y199390D02*
D03*
X252730Y212090D02*
D03*
X152400Y224790D02*
D03*
X143510Y212090D02*
D03*
X152400Y199390D02*
D03*
X143510Y186690D02*
D03*
X152400Y173990D02*
D03*
X143510Y161290D02*
D03*
X152400Y148590D02*
D03*
X828040Y194310D02*
D03*
X836930Y181610D02*
D03*
X828040Y168910D02*
D03*
X836930Y156210D02*
D03*
X828040Y143510D02*
D03*
Y118110D02*
D03*
X739140Y168910D02*
D03*
X723900Y156210D02*
D03*
Y194310D02*
D03*
Y181610D02*
D03*
X739140D02*
D03*
Y130810D02*
D03*
X723900Y143510D02*
D03*
D35*
X755650Y6350D02*
D03*
X274320D02*
D03*
X515620D02*
D03*
X133350Y270510D02*
D03*
X116840D02*
D03*
M02*
